# xmcd CD database file
#
# Track frame offsets:
#	150
#	17312
#	35775
#	55950
#	76865
#	101162
#	115035
#	138362
#	164752
#	178885
#	199465
#	227440
#	249260
#
# Disc length: 3478 seconds
#
# Revision: 5
# Processed by: cddbd v1.5.2PL0 Copyright (c) Steve Scherf et al.
# Submitted via: CDex 1.70beta2
#
DISCID=ab0d940d
DTITLE=Biella Da Costa - Jazz and Blues
DYEAR=1994
DGENRE=Jazz
TTITLE0=All The Things You are
TTITLE1=All Of Me
TTITLE2=The Man I Love
TTITLE3=Stella By Starlight
TTITLE4=Willow Weep For Me
TTITLE5=Cry Me A River
TTITLE6=Since I Fell for You
TTITLE7=The Thrill Is Gone
TTITLE8=Hard Times
TTITLE9=Stolen Moments
TTITLE10=God Bless The Child
TTITLE11=Evil Gal
TTITLE12=Someday Baby
EXTD=YEAR: 1994
EXTT0=
EXTT1=
EXTT2=
EXTT3=
EXTT4=
EXTT5=
EXTT6=
EXTT7=
EXTT8=
EXTT9=
EXTT10=
EXTT11=
EXTT12=
PLAYORDER=
